<svg xmlns="http://www.w3.org/2000/svg" width="800" height="80" viewBox="0 0 800 80">
  <style>
    @keyframes fall0{0%{transform:translateY(-90px);opacity:0}10%{opacity:1}90%{opacity:0.6}100%{transform:translateY(90px);opacity:0}}
    @keyframes fall1{0%{transform:translateY(-90px);opacity:0}10%{opacity:1}90%{opacity:0.5}100%{transform:translateY(90px);opacity:0}}
    text{font-family:'Courier New',monospace;font-size:11px;fill:#26a641}
    .bright{fill:#39d353;font-weight:bold}
    .col0{animation:fall0 2.4s linear infinite}
    .col1{animation:fall1 2.9s linear infinite 0.5s}
    .col2{animation:fall0 2.6s linear infinite 0.9s}
    .col3{animation:fall1 3.1s linear infinite 0.3s}
    .col4{animation:fall0 2.7s linear infinite 1.1s}
    .col5{animation:fall1 2.3s linear infinite 0.7s}
    .col6{animation:fall0 3.0s linear infinite 1.4s}
    .col7{animation:fall1 2.5s linear infinite 0.4s}
    .col8{animation:fall0 2.8s linear infinite 1.0s}
    .col9{animation:fall1 3.2s linear infinite 0.2s}
    .col10{animation:fall0 2.5s linear infinite 1.3s}
    .col11{animation:fall1 2.9s linear infinite 0.6s}
    .col12{animation:fall0 2.4s linear infinite 1.5s}
    .col13{animation:fall1 2.7s linear infinite 0.8s}
    .col14{animation:fall0 3.0s linear infinite 0.1s}
    .col15{animation:fall1 2.6s linear infinite 1.2s}
  </style>

  <g class="col0"><text x="20" y="0">B</text><text x="20" y="14">ア</text><text x="20" y="28">1</text><text x="20" y="42">z</text><text x="20" y="56">ウ</text><text x="20" y="70" class="bright">█</text></g>
  <g class="col1"><text x="68" y="0">R</text><text x="68" y="14">9</text><text x="68" y="28">エ</text><text x="68" y="42">A</text><text x="68" y="56">2</text><text x="68" y="70" class="bright">█</text></g>
  <g class="col2"><text x="116" y="0">U</text><text x="116" y="14">カ</text><text x="116" y="28">N</text><text x="116" y="42">8</text><text x="116" y="56">キ</text><text x="116" y="70" class="bright">█</text></g>
  <g class="col3"><text x="164" y="0">N</text><text x="164" y="14">5</text><text x="164" y="28">ク</text><text x="164" y="42">M</text><text x="164" y="56">1</text><text x="164" y="70" class="bright">█</text></g>
  <g class="col4"><text x="212" y="0">O</text><text x="212" y="14">ケ</text><text x="212" y="28">7</text><text x="212" y="42">コ</text><text x="212" y="56">4</text><text x="212" y="70" class="bright">█</text></g>
  <g class="col5"><text x="260" y="0">サ</text><text x="260" y="14">A</text><text x="260" y="28">シ</text><text x="260" y="42">2</text><text x="260" y="56">ス</text><text x="260" y="70" class="bright">█</text></g>
  <g class="col6"><text x="308" y="0">I</text><text x="308" y="14">セ</text><text x="308" y="28">6</text><text x="308" y="42">ソ</text><text x="308" y="56">L</text><text x="308" y="70" class="bright">█</text></g>
  <g class="col7"><text x="356" y="0">タ</text><text x="356" y="14">3</text><text x="356" y="28">チ</text><text x="356" y="42">Y</text><text x="356" y="56">9</text><text x="356" y="70" class="bright">█</text></g>
  <g class="col8"><text x="404" y="0">M</text><text x="404" y="14">ツ</text><text x="404" y="28">テ</text><text x="404" y="42">5</text><text x="404" y="56">ト</text><text x="404" y="70" class="bright">█</text></g>
  <g class="col9"><text x="452" y="0">E</text><text x="452" y="14">ナ</text><text x="452" y="28">N</text><text x="452" y="42">ニ</text><text x="452" y="56">7</text><text x="452" y="70" class="bright">█</text></g>
  <g class="col10"><text x="500" y="0">R</text><text x="500" y="14">2</text><text x="500" y="28">ヌ</text><text x="500" y="42">A</text><text x="500" y="56">ネ</text><text x="500" y="70" class="bright">█</text></g>
  <g class="col11"><text x="548" y="0">A</text><text x="548" y="14">ノ</text><text x="548" y="28">8</text><text x="548" y="42">ハ</text><text x="548" y="56">C</text><text x="548" y="70" class="bright">█</text></g>
  <g class="col12"><text x="596" y="0">ヒ</text><text x="596" y="14">G</text><text x="596" y="28">フ</text><text x="596" y="42">4</text><text x="596" y="56">ヘ</text><text x="596" y="70" class="bright">█</text></g>
  <g class="col13"><text x="644" y="0">I</text><text x="644" y="14">ホ</text><text x="644" y="28">6</text><text x="644" y="42">マ</text><text x="644" y="56">T</text><text x="644" y="70" class="bright">█</text></g>
  <g class="col14"><text x="692" y="0">T</text><text x="692" y="14">ミ</text><text x="692" y="28">H</text><text x="692" y="42">ム</text><text x="692" y="56">0</text><text x="692" y="70" class="bright">█</text></g>
  <g class="col15"><text x="740" y="0">U</text><text x="740" y="14">3</text><text x="740" y="28">メ</text><text x="740" y="42">B</text><text x="740" y="56">モ</text><text x="740" y="70" class="bright">█</text></g>
</svg>
